<?xml version="1.0" encoding="utf-8"?>
<svg version="1.1" id="图层_1" xmlns="http://www.w3.org/2000/svg" xmlns:xlink="http://www.w3.org/1999/xlink"
viewBox="74 357 420 106" xml:space="preserve">
<style type="text/css">
.st0{fill:url(#SVGID_1_);}
.st1{fill:url(#SVGID_00000022554636404037995990000010296415524174833043_);}
.st2{fill:url(#SVGID_00000065787564519219431070000015295176686398717102_);}
.st3{fill:url(#SVGID_00000087379052077347095190000011884112674710485181_);}
.st4{fill:url(#SVGID_00000055694082500588312130000007056832275501735315_);}
.st5{fill:url(#SVGID_00000152971424554160679330000008160116508391759541_);}
.st6{fill:url(#SVGID_00000148635285537655860740000011579092313481375875_);}
.st7{fill:#F4F4F4;}
.st8{fill:#FFFFFF;}
.st9{fill:url(#SVGID_00000083810797289112507670000005792750766986304944_);}
.st10{fill:url(#SVGID_00000013182906248742700380000009126377617618040720_);}
.st11{fill:url(#SVGID_00000041267715104678753780000000644874664136343986_);}
.st12{fill:url(#SVGID_00000096769982970501961100000005285314016067616416_);}
.st13{fill:url(#SVGID_00000059307853318974090670000009742432334351841453_);}
.st14{fill:url(#SVGID_00000091702009799545839180000017702930862525188532_);}
.st15{fill:url(#SVGID_00000021078120972765642760000011876062778804180871_);}
.st16{fill:url(#SVGID_00000071540993455235488460000009029270957419826562_);}
</style>
<g>
<path class="st7" d="M139.9,362.1v11.1c0,0.4-0.4,0.8-0.8,0.8h-23.6c-0.4,0-0.8,0.4-0.8,0.8v59.8c0,0.4-0.4,0.8-0.8,0.8h-10.7
c-0.4,0-0.8-0.4-0.8-0.8v-59.8c0-0.4-0.4-0.8-0.8-0.8H79.9c-0.4,0-0.8-0.4-0.8-0.8v-11.1c0-0.4,0.4-0.8,0.8-0.8h59.2
C139.5,361.3,139.9,361.7,139.9,362.1z"/>
<path class="st7" d="M185.1,427.6c0.4,0.8,0.1,1.7-0.6,2.2c-5.4,4.1-12.4,6.7-21.3,6.7c-16.8,0-26.6-12.5-26.6-28.8
c0-12.1,7.5-28.8,26.1-28.8c16.2,0,25.4,12,25.4,29.5v1.5c0,1-0.8,1.8-1.8,1.8h-35.4c-1.2,0-2,1.1-1.7,2.2
c1.7,6.4,7.5,10.2,15.3,10.2c5.4,0,10.9-1.9,14.8-4.3c0.9-0.5,2.1-0.2,2.5,0.8L185.1,427.6z M151.7,401.6h21.7c1.2,0,2-1.2,1.7-2.3
c-1.7-5.6-6.4-8.8-12.4-8.8c-5.9,0.1-10.5,3.1-12.6,8.7C149.6,400.3,150.4,401.6,151.7,401.6z"/>
<path class="st7" d="M210.1,405.5v27.4c0,1.4-1.1,2.5-2.5,2.5H201c-1.4,0-2.5-1.1-2.5-2.5v-28.3c0-9.5,2.8-15.6,7.5-19.7
c4.7-4.2,10.9-5.8,16.6-5.8s11.9,1.6,16.6,5.8c4.6,4.1,7.5,10.3,7.5,19.7v28.3c0,1.4-1.1,2.5-2.5,2.5h-6.5c-1.4,0-2.5-1.1-2.5-2.5
v-27.4c0-8.8-3.7-14-12.6-14C213.8,391.5,210.1,396.7,210.1,405.5z"/>
<path class="st7" d="M279.9,436.5c-7.3,0-15.4-2.4-22.7-7.1c-0.9-0.6-1.2-1.7-0.8-2.7l3-6.1c0.5-1.1,1.8-1.5,2.9-0.9
c7,3.8,12.9,5.1,17.6,5.1c6.3,0,9.8-2.4,9.8-5.6c0-2.4-1.5-3.4-6.5-4.6l-8.9-1.9c-11-2.4-15.9-7.1-15.9-16.5
c0-11.3,9.4-17.1,20.5-17.1c6.5,0,13.5,1.9,19.8,5.7c0.9,0.5,1.3,1.6,0.9,2.6l-2.7,6.2c-0.5,1.1-1.7,1.6-2.8,1.1
c-4.8-2.3-10.4-3.7-14.9-3.7c-5.2,0-9.2,1.4-9.2,4.9c0,2.4,1.7,3.8,7,4.9l8.3,1.8c12.2,2.5,15.8,6.6,15.8,16.1
C301.1,430.5,291.7,436.5,279.9,436.5z"/>
<path class="st7" d="M351.1,386.8v-23c0-1.3,1.1-2.4,2.4-2.4h6.7c1.3,0,2.4,1.1,2.4,2.4v43.5c0,8.6-2.5,16-7.2,21.2
c-4.7,5.1-11.6,8.1-19.8,8.1c-17.3,0-26.5-12.7-26.5-29c0-16.2,10.5-28.5,25.3-28.5c7.5,0,13.4,3.2,16.3,7.8L351.1,386.8
L351.1,386.8z M320.6,407.8c0,8.2,4.5,16.5,15.1,16.5s15.1-8.3,15.1-16.5c0-9.7-6.1-16.5-15.3-16.5
C325.4,391.2,320.6,399.1,320.6,407.8z"/>
<path class="st7" d="M399.8,379c17.1,0,26.9,12,26.9,28.9v24.5c0,1.6-1.3,3-3,3h-5.6c-1.6,0-3-1.3-3-3v-4.6h-0.3
c-2.6,5.4-9,8.8-16.2,8.8c-16.3,0-25.5-13.2-25.5-28.6C373.2,390.4,384.1,379,399.8,379z M399.9,424.3c10.6,0,15.2-8.1,15.2-16.5
c0-8.2-4.5-16.5-15.1-16.5s-15.1,8.3-15.1,16.5S389.3,424.3,399.9,424.3z"/>
<path class="st7" d="M479.4,428.7h-0.5c-2.6,4.1-8.8,7.9-16.5,7.9c-14.4,0-25.1-11.1-25.1-28.9c0-14.8,8.9-28.6,26.8-28.6
c10.1,0,18,4.5,22.5,11.8c2.8,4.7,4.3,9.3,4.3,18.7v42.7c0,1.5-1.2,2.7-2.7,2.7h-6c-1.5,0-2.7-1.2-2.7-2.7L479.4,428.7L479.4,428.7
z M449,407.8c0,9.1,5.3,16.5,14.7,16.5c4.8,0,9.2-1.8,12-5.2c2.4-2.8,3.5-7.1,3.5-11.3c0-8.2-4.5-16.5-15.1-16.5
C453.5,391.2,449,399.4,449,407.8z"/>
</g>
</svg>