<?xml version="1.0" encoding="utf-8"?>
<svg version="1.1" id="图层_1" xmlns="http://www.w3.org/2000/svg" xmlns:xlink="http://www.w3.org/1999/xlink"
     viewBox="72 338 420 106" xml:space="preserve">
<style type="text/css">
    .st0{fill:url(#SVGID_1_);}
    .st1{fill:url(#SVGID_00000093155520550156035630000015599627335626665358_);}
    .st2{fill:url(#SVGID_00000170990883919152157680000005031757623360214677_);}
    .st3{fill:url(#SVGID_00000017486231191170881260000002901857011177291169_);}
    .st4{fill:url(#SVGID_00000114783662469593826850000014544554172643392129_);}
    .st5{fill:url(#SVGID_00000166648439468268420450000016151930403510291105_);}
    .st6{fill:url(#SVGID_00000183952017905119471180000015192963205095314609_);}
    .st7{fill:#FFFFFF;}
    .st8{fill:url(#SVGID_00000158013175594236088870000000017310886349240240_);}
    .st9{fill:url(#SVGID_00000048498037775674530310000000547434540589682096_);}
    .st10{fill:url(#SVGID_00000103223735434558344450000006426625636693430461_);}
    .st11{fill:url(#SVGID_00000008834520937307429660000000408958607567187899_);}
    .st12{fill:url(#SVGID_00000031196374257950138200000017658699740473201326_);}
    .st13{fill:url(#SVGID_00000035501986934395385580000006763483850852906906_);}
    .st14{fill:url(#SVGID_00000067198545706058140840000015306499883266388872_);}
    .st15{fill:url(#SVGID_00000080174909039793403140000006793883261916548994_);}
</style>
<g>
    
        <linearGradient id="SVGID_1_" gradientUnits="userSpaceOnUse" x1="93.8993" y1="320.266" x2="505.68" y2="320.266" gradientTransform="matrix(1 0 0 -1 -17.0237 701.7289)">
        <stop  offset="0" style="stop-color:#6041F6"/>
        <stop  offset="1" style="stop-color:#9325F9"/>
    </linearGradient>
    <path class="st0" d="M137.7,345.2v11.1c0,0.4-0.4,0.8-0.8,0.8h-23.6c-0.4,0-0.8,0.4-0.8,0.8v59.8c0,0.4-0.4,0.8-0.8,0.8H101
        c-0.4,0-0.8-0.4-0.8-0.8v-59.8c0-0.4-0.4-0.8-0.8-0.8H77.7c-0.4,0-0.8-0.4-0.8-0.8v-11.1c0-0.4,0.4-0.8,0.8-0.8h59.2
        C137.3,344.4,137.7,344.8,137.7,345.2z"/>
    
        <linearGradient id="SVGID_00000177456187840315342720000000128553461608540588_" gradientUnits="userSpaceOnUse" x1="93.9214" y1="310.9161" x2="505.7021" y2="310.9161" gradientTransform="matrix(1 0 0 -1 -17.0237 701.7289)">
        <stop  offset="0" style="stop-color:#6041F6"/>
        <stop  offset="1" style="stop-color:#9325F9"/>
    </linearGradient>
    <path style="fill:url(#SVGID_00000177456187840315342720000000128553461608540588_);" d="M182.9,410.7c0.4,0.8,0.1,1.7-0.6,2.2
        c-5.4,4.1-12.4,6.7-21.3,6.7c-16.8,0-26.6-12.5-26.6-28.8c0-12.1,7.5-28.8,26.1-28.8c16.2,0,25.4,12,25.4,29.5v1.5
        c0,1-0.8,1.8-1.8,1.8h-35.4c-1.2,0-2,1.1-1.7,2.2c1.7,6.4,7.5,10.2,15.3,10.2c5.4,0,10.9-1.9,14.8-4.3c0.9-0.5,2.1-0.2,2.5,0.8
        L182.9,410.7z M149.5,384.7h21.7c1.2,0,2-1.2,1.7-2.3c-1.7-5.6-6.4-8.8-12.4-8.8c-5.9,0.1-10.5,3.1-12.6,8.7
        C147.4,383.4,148.2,384.7,149.5,384.7z"/>
    
        <linearGradient id="SVGID_00000089555302234412799240000016561213491040049551_" gradientUnits="userSpaceOnUse" x1="93.9214" y1="311.366" x2="505.7021" y2="311.366" gradientTransform="matrix(1 0 0 -1 -17.0237 701.7289)">
        <stop  offset="0" style="stop-color:#6041F6"/>
        <stop  offset="1" style="stop-color:#9325F9"/>
    </linearGradient>
    <path style="fill:url(#SVGID_00000089555302234412799240000016561213491040049551_);" d="M207.9,388.6V416c0,1.4-1.1,2.5-2.5,2.5
        h-6.5c-1.4,0-2.5-1.1-2.5-2.5v-28.3c0-9.5,2.8-15.6,7.5-19.7c4.7-4.2,10.9-5.8,16.6-5.8s11.9,1.6,16.6,5.8
        c4.6,4.1,7.5,10.3,7.5,19.7V416c0,1.4-1.1,2.5-2.5,2.5h-6.5c-1.4,0-2.5-1.1-2.5-2.5v-27.4c0-8.8-3.7-14-12.6-14
        C211.6,374.6,207.9,379.8,207.9,388.6z"/>
    
        <linearGradient id="SVGID_00000052797628132104630490000012196253689339687302_" gradientUnits="userSpaceOnUse" x1="96.735" y1="310.816" x2="503.2963" y2="310.816" gradientTransform="matrix(1 0 0 -1 -17.0237 701.7289)">
        <stop  offset="0" style="stop-color:#6041F6"/>
        <stop  offset="1" style="stop-color:#9325F9"/>
    </linearGradient>
    <path style="fill:url(#SVGID_00000052797628132104630490000012196253689339687302_);" d="M277.7,419.6c-7.3,0-15.4-2.4-22.7-7.1
        c-0.9-0.6-1.2-1.7-0.8-2.7l3-6.1c0.5-1.1,1.8-1.5,2.9-0.9c7,3.8,12.9,5.1,17.6,5.1c6.3,0,9.8-2.4,9.8-5.6c0-2.4-1.5-3.4-6.5-4.6
        l-8.9-1.9c-11-2.4-15.9-7.1-15.9-16.5c0-11.3,9.4-17.1,20.5-17.1c6.5,0,13.5,1.9,19.8,5.7c0.9,0.5,1.3,1.6,0.9,2.6l-2.7,6.2
        c-0.5,1.1-1.7,1.6-2.8,1.1c-4.8-2.3-10.4-3.7-14.9-3.7c-5.2,0-9.2,1.4-9.2,4.9c0,2.4,1.7,3.8,7,4.9l8.3,1.8
        c12.2,2.5,15.8,6.6,15.8,16.1C298.9,413.6,289.5,419.6,277.7,419.6z"/>
    
        <linearGradient id="SVGID_00000059299594020165860760000014413731621452441518_" gradientUnits="userSpaceOnUse" x1="93.9214" y1="319.6161" x2="505.7021" y2="319.6161" gradientTransform="matrix(1 0 0 -1 -17.0237 701.7289)">
        <stop  offset="0" style="stop-color:#6041F6"/>
        <stop  offset="1" style="stop-color:#9325F9"/>
    </linearGradient>
    <path style="fill:url(#SVGID_00000059299594020165860760000014413731621452441518_);" d="M348.9,369.9v-23c0-1.3,1.1-2.4,2.4-2.4
        h6.7c1.3,0,2.4,1.1,2.4,2.4v43.5c0,8.6-2.5,16-7.2,21.2c-4.7,5.1-11.6,8.1-19.8,8.1c-17.3,0-26.5-12.7-26.5-29
        c0-16.2,10.5-28.5,25.3-28.5c7.5,0,13.4,3.2,16.3,7.8L348.9,369.9L348.9,369.9z M318.4,390.9c0,8.2,4.5,16.5,15.1,16.5
        s15.1-8.3,15.1-16.5c0-9.7-6.1-16.5-15.3-16.5C323.2,374.3,318.4,382.2,318.4,390.9z"/>
    
        <linearGradient id="SVGID_00000083767054171613334210000011837349453823109567_" gradientUnits="userSpaceOnUse" x1="93.9214" y1="310.816" x2="505.7021" y2="310.816" gradientTransform="matrix(1 0 0 -1 -17.0237 701.7289)">
        <stop  offset="0" style="stop-color:#6041F6"/>
        <stop  offset="1" style="stop-color:#9325F9"/>
    </linearGradient>
    <path style="fill:url(#SVGID_00000083767054171613334210000011837349453823109567_);" d="M397.6,362.1c17.1,0,26.9,12,26.9,28.9
        v24.5c0,1.6-1.3,3-3,3h-5.6c-1.6,0-3-1.3-3-3v-4.6h-0.3c-2.6,5.4-9,8.8-16.2,8.8c-16.3,0-25.5-13.2-25.5-28.6
        C371,373.5,381.9,362.1,397.6,362.1z M397.7,407.4c10.6,0,15.2-8.1,15.2-16.5c0-8.2-4.5-16.5-15.1-16.5s-15.1,8.3-15.1,16.5
        S387.1,407.4,397.7,407.4z"/>
    
        <linearGradient id="SVGID_00000152952050697217732600000016354553601028531124_" gradientUnits="userSpaceOnUse" x1="93.9214" y1="301.566" x2="505.7021" y2="301.566" gradientTransform="matrix(1 0 0 -1 -17.0237 701.7289)">
        <stop  offset="0" style="stop-color:#6041F6"/>
        <stop  offset="1" style="stop-color:#9325F9"/>
    </linearGradient>
    <path style="fill:url(#SVGID_00000152952050697217732600000016354553601028531124_);" d="M477.2,411.8h-0.5
        c-2.6,4.1-8.8,7.9-16.5,7.9c-14.4,0-25.1-11.1-25.1-28.9c0-14.8,8.9-28.6,26.8-28.6c10.1,0,18,4.5,22.5,11.8
        c2.8,4.7,4.3,9.3,4.3,18.7v42.7c0,1.5-1.2,2.7-2.7,2.7h-6c-1.5,0-2.7-1.2-2.7-2.7V411.8L477.2,411.8z M446.8,390.9
        c0,9.1,5.3,16.5,14.7,16.5c4.8,0,9.2-1.8,12-5.2c2.4-2.8,3.5-7.1,3.5-11.3c0-8.2-4.5-16.5-15.1-16.5
        C451.3,374.3,446.8,382.5,446.8,390.9z"/>
</g>
</svg>