<?xml version="1.0" encoding="utf-8"?>
<svg version="1.1" id="图层_1" xmlns="http://www.w3.org/2000/svg" xmlns:xlink="http://www.w3.org/1999/xlink"
     viewBox="87 321 425 106" xml:space="preserve">
<style type="text/css">
    .st0{fill:url(#SVGID_1_);}
    .st1{fill:url(#SVGID_00000104669272607645571310000015537681025952844453_);}
    .st2{fill:url(#SVGID_00000110457829626090204650000000430211582969915583_);}
    .st3{fill:url(#SVGID_00000056399967189880061670000013239229419050965911_);}
    .st4{fill:url(#SVGID_00000170966308803256176580000013144273091798247820_);}
    .st5{fill:url(#SVGID_00000107565040363136672150000006532421990324847746_);}
    .st6{fill:url(#SVGID_00000046337673601031406060000015771480842779490477_);}
    .st7{fill:#F4F4F4;}
    .st8{fill:#FFFFFF;}
    .st9{fill:url(#SVGID_00000036228917636876990360000012873651625757352608_);}
    .st10{fill:url(#SVGID_00000099648214130905586700000007091741592881409975_);}
    .st11{fill:url(#SVGID_00000046307066410675241360000001487262104504552084_);}
    .st12{fill:url(#SVGID_00000091720141412828946380000005321919096240767104_);}
    .st13{fill:url(#SVGID_00000135693040240034187090000003273247813392080574_);}
    .st14{fill:url(#SVGID_00000138532706095309911210000014047039151636449155_);}
    .st15{fill:url(#SVGID_00000019642145451766230450000006783417780080744634_);}
    .st16{fill:url(#SVGID_00000103983928441378758550000001179278893013616315_);}
</style>
<g>
    <path d="M152.6,327.6v11.1c0,0.4-0.4,0.8-0.8,0.8h-23.6c-0.4,0-0.8,0.4-0.8,0.8v59.8c0,0.4-0.4,0.8-0.8,0.8h-10.7
        c-0.4,0-0.8-0.4-0.8-0.8v-59.8c0-0.4-0.4-0.8-0.8-0.8H92.5c-0.4,0-0.8-0.4-0.8-0.8v-11.1c0-0.4,0.4-0.8,0.8-0.8h59.2
        C152.2,326.8,152.6,327.1,152.6,327.6z"/>
    <path d="M197.8,393.1c0.4,0.8,0.1,1.7-0.6,2.2c-5.4,4.1-12.4,6.7-21.3,6.7c-16.8,0-26.6-12.5-26.6-28.8c0-12.1,7.5-28.8,26.1-28.8
        c16.2,0,25.4,12,25.4,29.5v1.5c0,1-0.8,1.8-1.8,1.8h-35.4c-1.2,0-2,1.1-1.7,2.2c1.7,6.4,7.5,10.2,15.3,10.2
        c5.4,0,10.9-1.9,14.8-4.3c0.9-0.5,2.1-0.2,2.5,0.8L197.8,393.1z M164.4,367.1H186c1.2,0,2-1.2,1.7-2.3c-1.7-5.6-6.4-8.8-12.4-8.8
        c-5.9,0.1-10.5,3.1-12.6,8.7C162.3,365.8,163.1,367.1,164.4,367.1z"/>
    <path d="M222.8,371v27.4c0,1.4-1.1,2.5-2.5,2.5h-6.5c-1.4,0-2.5-1.1-2.5-2.5v-28.3c0-9.5,2.8-15.6,7.5-19.7
        c4.7-4.2,10.9-5.8,16.6-5.8s11.9,1.6,16.6,5.8c4.6,4.1,7.5,10.3,7.5,19.7v28.3c0,1.4-1.1,2.5-2.5,2.5h-6.5c-1.4,0-2.5-1.1-2.5-2.5
        V371c0-8.8-3.7-14-12.6-14C226.5,357,222.8,362.2,222.8,371z"/>
    <path d="M292.6,402c-7.3,0-15.4-2.4-22.7-7.1c-0.9-0.6-1.2-1.7-0.8-2.7l3-6.1c0.5-1.1,1.8-1.5,2.9-0.9c7,3.8,12.9,5.1,17.6,5.1
        c6.3,0,9.8-2.4,9.8-5.6c0-2.4-1.5-3.4-6.5-4.6l-8.9-1.9c-11-2.4-15.9-7.1-15.9-16.5c0-11.3,9.4-17.1,20.5-17.1
        c6.5,0,13.5,1.9,19.8,5.7c0.9,0.5,1.3,1.6,0.9,2.6l-2.7,6.2c-0.5,1.1-1.7,1.6-2.8,1.1c-4.8-2.3-10.4-3.7-14.9-3.7
        c-5.2,0-9.2,1.4-9.2,4.9c0,2.4,1.7,3.8,7,4.9l8.3,1.8c12.2,2.5,15.8,6.6,15.8,16.1C313.8,396,304.4,402,292.6,402z"/>
    <path d="M363.8,352.3v-23c0-1.3,1.1-2.4,2.4-2.4h6.7c1.3,0,2.4,1.1,2.4,2.4v43.5c0,8.6-2.5,16-7.2,21.2c-4.7,5.1-11.6,8.1-19.8,8.1
        c-17.3,0-26.5-12.7-26.5-29c0-16.2,10.5-28.5,25.3-28.5c7.5,0,13.4,3.2,16.3,7.8L363.8,352.3L363.8,352.3z M333.3,373.3
        c0,8.2,4.5,16.5,15.1,16.5s15.1-8.3,15.1-16.5c0-9.7-6.1-16.5-15.3-16.5C338.1,356.7,333.3,364.6,333.3,373.3z"/>
    <path d="M412.5,344.5c17.1,0,26.9,12,26.9,28.9v24.5c0,1.6-1.3,3-3,3h-5.6c-1.6,0-3-1.3-3-3v-4.6h-0.3c-2.6,5.4-9,8.8-16.2,8.8
        c-16.3,0-25.5-13.2-25.5-28.6C385.9,355.9,396.8,344.5,412.5,344.5z M412.6,389.8c10.6,0,15.2-8.1,15.2-16.5
        c0-8.2-4.5-16.5-15.1-16.5s-15.1,8.3-15.1,16.5S402,389.8,412.6,389.8z"/>
    <path d="M492.1,394.2h-0.5c-2.6,4.1-8.8,7.9-16.5,7.9c-14.4,0-25.1-11.1-25.1-28.9c0-14.8,8.9-28.6,26.8-28.6
        c10.1,0,18,4.5,22.5,11.8c2.8,4.7,4.3,9.3,4.3,18.7v42.7c0,1.5-1.2,2.7-2.7,2.7h-6c-1.5,0-2.7-1.2-2.7-2.7L492.1,394.2L492.1,394.2
        z M461.7,373.3c0,9.1,5.3,16.5,14.7,16.5c4.8,0,9.2-1.8,12-5.2c2.4-2.8,3.5-7.1,3.5-11.3c0-8.2-4.5-16.5-15.1-16.5
        C466.2,356.7,461.7,364.9,461.7,373.3z"/>
</g>
</svg>