<?xml version="1.0" standalone="no"?>
<!DOCTYPE svg PUBLIC "-//W3C//DTD SVG 1.1//EN" "http://www.w3.org/Graphics/SVG/1.1/DTD/svg11.dtd">
<svg
  t="1746996704863"
  class="icon"
  viewBox="0 0 1219 1024"
  version="1.1"
  xmlns="http://www.w3.org/2000/svg"
  xmlns:xlink="http://www.w3.org/1999/xlink"
  width="238.0859375"
  height="200"
  p-id="3618"
>
  <!-- 气泡黑色描边 -->
  <path
    d="M620.054335 997.952365l-177.169152-162.618664H272.727407A235.333407 235.333407 0 0 1 37.695564 600.264163V253.879625A235.333407 235.333407 0 0 1 272.727407 18.847782h692.769077a235.333407 235.333407 0 0 1 235.031843 235.031843v346.384538a235.333407 235.333407 0 0 1-235.031843 235.031843H784.067734z"
    fill="#0F0F0F"
    p-id="3619"
  />
  <!-- 白色填充（仅位于描边内部） -->
  <path
    d="M620.054335 997.952365
       m-347.289233-904.693539
       a160.997754 160.997754 0 0 0 -160.846972 160.620799
       v346.384538
       a160.997754 160.997754 0 0 0 160.809277 160.809277
       h198.957187
       l146.522658 134.309295
       135.28938 -134.271599
       h212.18833
       a160.997754 160.997754 0 0 0 160.809277 -160.809277
       v-346.422234
       a160.997754 160.997754 0 0 0 -160.809277 -160.809277
       z"
    fill="#FFFFFF"
  />
  <!-- 省略号 -->
  <path
    d="M384.080103 472.438505a37.092435 37.092435 0 0 1-37.130131-37.13013v-49.45658a37.130131 37.130131 0 1 1 74.222566 0v49.45658a37.092435 37.092435 0 0 1-37.092435 37.13013z"
    fill="#F15549"
    p-id="3620"
  />
  <path
    d="M631.513786 472.438505a37.092435 37.092435 0 0 1-37.130131-37.13013v-49.45658a37.130131 37.130131 0 1 1 74.222566 0v49.45658a37.092435 37.092435 0 0 1-37.092435 37.13013z"
    fill="#F15549"
    p-id="3621"
  />
  <path
    d="M854.181484 472.438505a37.092435 37.092435 0 0 1-37.130131-37.13013v-49.45658a37.130131 37.130131 0 1 1 74.222566 0v49.45658a37.092435 37.092435 0 0 1-37.092435 37.13013z"
    fill="#F15549"
    p-id="3622"
  />
  <!-- 背景装饰圆 -->
  <path
    d="M433.498988 1.168562a433.498988 433.498988 0 0 1 433.498987 433.498988 438.022455 438.022455 0 0 1-216.447929 375.334732 421.059452 421.059452 0 0 1-217.051058 58.164256 433.498988 433.498988 0 0 1 0-866.997976z"
    fill="#FF8D84"
    opacity=".19"
    p-id="3623"
  />
</svg>
