<?xml version="1.0" standalone="no"?><!DOCTYPE svg PUBLIC "-//W3C//DTD SVG 1.1//EN" "http://www.w3.org/Graphics/SVG/1.1/DTD/svg11.dtd"><svg t="1746996638367" class="icon" viewBox="0 0 1024 1024" version="1.1" xmlns="http://www.w3.org/2000/svg" p-id="2989" id="mx_n_1746996638369" xmlns:xlink="http://www.w3.org/1999/xlink" width="200" height="200"><path d="M512 516.284519m-458.443515 0a458.443515 458.443515 0 1 0 916.88703 0 458.443515 458.443515 0 1 0-916.88703 0Z" fill="#F08282" p-id="2990"></path><path d="M507.715481 63.93359c-253.189356 0-458.443515 205.254159-458.443514 458.443515s205.254159 458.443515 458.443514 458.443514 458.443515-205.254159 458.443515-458.443514-205.254159-458.443515-458.443515-458.443515z m17.138075 895.464435c-231.895297 0-419.882845-187.987548-419.882845-419.882845s187.987548-419.882845 419.882845-419.882845 419.882845 187.987548 419.882846 419.882845-187.987548 419.882845-419.882846 419.882845z" fill="#FFFFFF" opacity=".14" p-id="2991"></path><path d="M507.715481 991.866109c-264.599029 0-479.866109-215.267079-479.866109-479.866109s215.267079-479.866109 479.866109-479.866109 479.866109 215.267079 479.866109 479.866109-215.267079 479.866109-479.866109 479.866109z m0-916.88703c-240.974192 0-437.020921 196.046728-437.02092 437.020921s196.046728 437.020921 437.02092 437.020921 437.020921-196.046728 437.020921-437.020921-196.046728-437.020921-437.020921-437.020921z" fill="#6E6E96" p-id="2992"></path><path d="M507.715481 53.556485c-253.189356 0-458.443515 205.254159-458.443514 458.443515s205.254159 458.443515 458.443514 458.443515 458.443515-205.254159 458.443515-458.443515-205.254159-458.443515-458.443515-458.443515z m-10.711297 852.619247c-233.077824 0-422.025105-188.955849-422.025105-422.025104 0-233.077824 188.94728-422.025105 422.025105-422.025105 233.069255 0 422.025105 188.94728 422.025105 422.025105 0 233.069255-188.955849 422.025105-422.025105 422.025104z" fill="#6E6E96" opacity=".15" p-id="2993"></path><path d="M511.760067 730.257674m-47.725255 0a47.725255 47.725255 0 1 0 95.45051 0 47.725255 47.725255 0 1 0-95.45051 0Z" fill="#FFFFFF" p-id="2994"></path><path d="M511.760067 703.959297a26.332653 26.332653 0 0 1 26.298377 26.302661 26.332653 26.332653 0 0 1-26.298377 26.306946 26.336937 26.336937 0 0 1-26.306946-26.306946 26.336937 26.336937 0 0 1 26.306946-26.302661z m-69.152134 26.298377c0 38.119364 31.019916 69.147849 69.152134 69.147849 38.127933 0 69.143565-31.019916 69.143565-69.147849s-31.015632-69.152134-69.143565-69.152134c-38.132218 0.008569-69.152134 31.028485-69.152134 69.152134z" fill="#6E6E96" p-id="2995"></path><path d="M557.582996 552.077389v12.930678c0 26.332653-21.354042 47.695264-47.699548 47.695264-26.332653 0-47.690979-21.349757-47.690979-47.695264V511.828619c0-26.336937 21.354042-47.695264 47.690979-47.695263 33.869121 0 61.422862-27.553741 61.422862-61.422862 0-33.864837-27.553741-61.414293-61.422862-61.414293-33.860552 0-61.414293 27.553741-61.414293 61.414293 0 26.341222-21.349757 47.695264-47.695264 47.695263s-47.686695-21.349757-47.686694-47.695263c0-41.876887 16.311163-81.2559 45.925757-110.870494 29.618879-29.614594 68.989322-45.925757 110.870494-45.925757 41.885456 0 81.264469 16.311163 110.887631 45.925757 29.61031 29.614594 45.917188 68.993607 45.917189 110.874778-0.008569 69.829088-45.90005 129.122544-109.105272 149.362611z" fill="#FFFFFF" p-id="2996"></path><path d="M536.160402 552.077389v12.930678a26.306946 26.306946 0 0 1-26.276954 26.272669 26.302661 26.302661 0 0 1-26.268385-26.272669V511.828619a26.298377 26.298377 0 0 1 26.268385-26.272669c45.68154 0 82.845456-37.163916 82.845456-82.845456 0-22.099548-8.624736-42.896603-24.284653-58.556519a82.275615 82.275615 0 0 0-58.560803-24.280368c-45.677255 0-82.836887 37.159632-82.836887 82.836887a26.302661 26.302661 0 0 1-26.27267 26.272669c-14.481674 0-26.2641-11.782427-26.2641-26.272669 0-36.157054 14.083213-70.154711 39.648937-95.720435 25.565724-25.565724 59.563381-39.648937 95.720435-39.648938 36.161339 0 70.16328 14.083213 95.737573 39.653222 25.565724 25.561439 39.640368 59.559096 39.640369 95.72472 0 59.092084-37.858008 110.917623-94.208 128.968301a21.396887 21.396887 0 0 0-14.888703 20.390025z m151.941891-149.366895c0-47.609573-18.534828-92.365657-52.194008-126.024837-33.663464-33.663464-78.423833-52.202577-126.029122-52.202578-47.601004 0-92.357088 18.539113-126.020552 52.198293-33.65918 33.65918-52.198293 78.415264-52.198293 126.020553 0 38.110795 31.002778 69.117858 69.109289 69.117857 38.110795 0 69.117858-31.007063 69.117857-69.117857 0-22.052418 17.943565-39.991699 39.991699-39.991699 10.655598 0 20.69851 4.168837 28.264971 11.735297a39.683213 39.683213 0 0 1 11.735297 28.260686c0 22.056703-17.943565 40.000268-40.000268 40.000268-38.110795 0-69.113573 31.007063-69.113573 69.117858v53.179447c0 38.115079 31.002778 69.117858 69.113573 69.117858 38.115079 0 69.117858-30.998494 69.117858-69.117858v-12.930677a21.422594 21.422594 0 0 1-14.888703 20.407163c74.169305-23.753372 123.993975-91.975766 123.993975-169.769774z" fill="#6E6E96" p-id="2997"></path></svg>